:SAMPLES-PER-SECOND 30
:FULLY-SPECIFIED
:DEGREES
639
root  22.302 38.3854 -12.0035 -143.983 -85.2678 138.557
RightUpLeg  -19.8058 5.79766 -6.64007
RightLeg  20.9857 1.76405 0.244635
RightFoot  -2.65511 -0.649758 8.28554
RightToes  -1.33073e-015 0 -3.6325e-017
Spine  8.55203 -0.428264 -3.25351
Spine1  3.62374 -0.559597 -1.06
HEad  -4.19164 -17.6116 -17.8775
LeftShoulder1  -0.291 4.25134 -32.786
LeftArm  6.95961 11.2429 -39.815
LeftForeArm  21.4915 -29.0586 -5.1199
LeftHand  -0.0128247 7.19929 1.56156
RightShoulder  -1.08224 -6.38776 30.9796
RightArm  22.555 -8.9042 42.5478
RightForeArm  10.6002 16.158 5.99633
RightHand  -0.0264079 4.54787 -0.607592
LeftUpLeg  7.90966 5.08923 -8.92791
LeftLeg  15.2497 1.39869 0.00893809
LeftFoot  -15.6036 0.526182 11.5656
LeftToes  -1.63346e-009 7.54925e-011 9.86887e-012
640
root  20.7785 38.2836 -11.9991 -138.45 -85.2592 133.355
RightUpLeg  -19.2409 -0.0681613 -4.85039
RightLeg  8.6924 6.93218 0.136864
RightFoot  -2.70073 -0.689818 8.9378
RightToes  -1.33073e-015 0 -3.6325e-017
Spine  7.65437 -0.483595 -2.69104
Spine1  4.16725 -0.437731 -1.13518
HEad  -3.80894 -17.4429 -18.1206
LeftShoulder1  -0.370477 4.45415 -32.8411
LeftArm  6.69983 10.3586 -39.4676
LeftForeArm  21.6061 -30.3344 -5.41198
LeftHand  -0.00472768 7.01503 2.17227
RightShoulder  -1.04895 -6.30051 30.9509
RightArm  21.2237 -8.42819 42.8129
RightForeArm  11.7767 14.6105 6.48149
RightHand  -0.0585081 3.88387 -0.999266
LeftUpLeg  11.0144 5.32124 -8.99016
LeftLeg  13.4461 0.621559 -0.42202
LeftFoot  -16.2107 0.571628 11.1135
LeftToes  -1.63346e-009 7.54925e-011 9.86887e-012
641
root  19.1686 38.0497 -12.0321 -134.804 -85.1427 129.759
RightUpLeg  -18.565 -5.15008 -2.9224
RightLeg  -0.502542 10.4093 -0.4276
RightFoot  -4.75234 -0.72147 11.9088
RightToes  -1.33073e-015 0 -3.6325e-017
Spine  6.85427 -0.257516 -2.01311
Spine1  4.69575 -0.032195 -1.47371
HEad  -3.27444 -17.3168 -17.8205
LeftShoulder1  -0.332585 4.35951 -32.7192
LeftArm  5.46829 9.78708 -39.7261
LeftForeArm  22.4287 -30.6557 -5.44293
LeftHand  -0.0114649 6.37902 2.3365
RightShoulder  -1.02444 -6.24421 30.8228
RightArm  19.2562 -8.27069 43.1207
RightForeArm  14.3085 13.1518 6.72916
RightHand  0.00581684 4.21718 -0.205298
LeftUpLeg  14.1905 5.88928 -8.80644
LeftLeg  12.571 -0.445109 -0.849722
LeftFoot  -17.4668 0.658188 10.3153
LeftToes  -1.63346e-009 7.54925e-011 9.86887e-012
642
root  17.5217 37.7813 -12.0891 -133.793 -85.0764 128.798
RightUpLeg  -19.1207 -4.65222 -2.36348
RightLeg  -2.41047 7.28193 -0.117487
RightFoot  -6.16233 -0.586439 11.8566
RightToes  -1.33073e-015 0 -3.6325e-017
Spine  6.56197 -0.10494 -1.3302
Spine1  4.74182 0.203158 -1.63102
HEad  -3.17444 -17.2176 -17.2955
LeftShoulder1  -0.404524 4.54183 -32.8264
LeftArm  4.96435 9.38543 -39.6745
LeftForeArm  21.9566 -30.4524 -5.42102
LeftHand  -0.00135301 6.64039 2.92892
RightShoulder  -1.03331 -6.25711 30.9598
RightArm  18.2641 -7.75156 43.0779
RightForeArm  16.3032 12.0183 6.95109
RightHand  0.0508916 3.55093 0.42203
LeftUpLeg  17.043 6.27228 -8.60091
LeftLeg  12.3696 -1.21979 -0.847735
LeftFoot  -18.3985 0.658896 8.87028
LeftToes  -1.63346e-009 7.54925e-011 9.86887e-012
643
root  15.8623 37.5894 -12.1412 -137.969 -85.4472 133.215
RightUpLeg  -21.3143 -3.8624 -1.0439
RightLeg  3.41964 4.18835 0.61037
RightFoot  -1.83396 -0.430958 5.93201
RightToes  -1.33073e-015 0 -3.6325e-017
Spine  6.02363 -0.180607 0.378984
Spine1  5.38904 0.211526 -1.93914
HEad  -3.40549 -17.0259 -16.3774
LeftShoulder1  -0.383273 4.493 -32.5758
LeftArm  3.55944 9.91751 -40.0064
LeftForeArm  21.7008 -29.5976 -5.23354
LeftHand  -0.0104925 6.02 3.27998
RightShoulder  -1.08447 -6.3476 31.5735
RightArm  17.7816 -6.65699 42.6762
RightForeArm  17.7166 10.8873 7.23503
RightHand  0.106462 2.95487 1.25073
LeftUpLeg  19.6479 6.99729 -7.35266
LeftLeg  12.3668 -2.92045 -1.15618
LeftFoot  -18.5722 0.5487 6.88722
LeftToes  -1.63346e-009 7.54925e-011 9.86887e-012
644
root  14.0916 37.4531 -12.1772 -155.28 -86.228 150.627
RightUpLeg  -23.357 -2.13429 0.772907
RightLeg  10.8442 4.49924 0.784979
RightFoot  5.92414 -0.0216177 0.0988136
RightToes  -1.33073e-015 0 -3.6325e-017
Spine  5.73502 -0.287976 2.92251
Spine1  5.68604 0.00362832 -1.33007
HEad  -3.47637 -15.0836 -16.2288
LeftShoulder1  -0.485583 4.72492 -33.6236
LeftArm  3.92291 10.2749 -39.5605
LeftForeArm  20.0855 -27.7044 -4.87319
LeftHand  0.0135217 6.94027 3.51775
RightShoulder  -1.04447 -6.28671 30.965
RightArm  16.5266 -6.36217 42.8197
RightForeArm  19.1555 10.1425 7.15719
RightHand  0.107573 3.01956 1.26035
LeftUpLeg  21.989 7.7411 -5.03907
LeftLeg  13.5165 -4.8202 -1.36751
LeftFoot  -18.0622 0.348455 4.15834
LeftToes  -1.63346e-009 7.54925e-011 9.86887e-012
645
root  12.23 37.2517 -12.1931 177.96 -86.5745 177.361
RightUpLeg  -24.575 0.1696 1.85537
RightLeg  18.2967 3.70454 1.12489
RightFoot  6.87152 -0.118538 1.01331
RightToes  -1.33073e-015 0 -3.6325e-017
Spine  5.72069 -0.687484 6.59871
Spine1  5.05327 0.113478 -2.69605
HEad  -3.30677 -12.4727 -16.2655
LeftShoulder1  -0.529794 4.8217 -34.0445
LeftArm  5.13999 10.7896 -39.7054
LeftForeArm  18.423 -24.4546 -4.34657
LeftHand  0.0154112 6.97307 3.54704
RightShoulder  -1.13626 -6.47399 31.7142
RightArm  16.2969 -5.8601 41.6815
RightForeArm  19.1061 9.85712 7.13221
RightHand  0.166224 2.92423 2.08204
LeftUpLeg  22.8032 8.35071 -2.2069
LeftLeg  18.1658 -6.99079 -2.25796
LeftFoot  -16.963 0.11371 0.210317
LeftToes  -1.63346e-009 7.54925e-011 9.86887e-012
646
root  10.5058 37.1617 -12.2316 151.157 -86.1237 -155.532
RightUpLeg  -25.3739 1.71121 3.50469
RightLeg  24.6198 2.45046 0.9878
RightFoot  4.46014 0.320392 -2.1008
RightToes  -1.33073e-015 0 -3.6325e-017
Spine  5.55878 -0.824359 9.5332
Spine1  4.91706 0.249357 -2.58826
HEad  -3.40195 -9.90738 -15.4459
LeftShoulder1  -0.525789 4.80715 -34.1821
LeftArm  4.9982 11.4301 -40.5519
LeftForeArm  18.7883 -20.4672 -4.50964
LeftHand  0.00957222 7.01683 3.28117
RightShoulder  -1.11017 -6.41449 31.5899
RightArm  15.1502 -5.70179 41.4107
RightForeArm  18.8262 9.56724 6.88561
RightHand  0.0977163 2.41285 1.25914
LeftUpLeg  20.539 7.98628 0.275038
LeftLeg  26.5335 -8.32055 -4.1782
LeftFoot  -12.3455 0.0595608 -5.48729
LeftToes  -1.63346e-009 7.54925e-011 9.86887e-012
647
root  8.93791 37.1572 -12.358 125.505 -86.3877 -129.576
RightUpLeg  -24.9585 3.11299 4.52517
RightLeg  28.5729 -0.0846675 -0.280388
RightFoot  0.686652 0.370193 -3.44299
RightToes  -1.33073e-015 0 -3.6325e-017
Spine  5.65319 -1.27016 10.1095
Spine1  4.75665 -0.284299 -0.764624
HEad  -2.92194 -8.12693 -13.0966
LeftShoulder1  -0.498749 4.76133 -33.5051
LeftArm  2.31399 11.9753 -41.8503
LeftForeArm  22.6791 -16.9007 -5.92172
LeftHand  0.0107071 8.31879 2.00107
RightShoulder  -1.08162 -6.34797 31.4739
RightArm  14.3636 -5.08282 41.4739
RightForeArm  18.7911 9.36438 6.70284
RightHand  0.12306 2.82533 1.53603
LeftUpLeg  14.8297 6.00609 1.98901
LeftLeg  38.4961 -7.84215 -6.21689
LeftFoot  -1.8867 0.864961 -10.4818
LeftToes  -1.63346e-009 7.54925e-011 9.86887e-012
648
root  7.54601 37.1802 -12.436 92.659 -85.7293 -96.2877
RightUpLeg  -24.0308 2.66289 5.98939
RightLeg  30.8611 -1.33351 -1.10624
RightFoot  -2.54915 0.279773 -3.84106
RightToes  -1.33073e-015 0 -3.6325e-017
Spine  6.03501 -1.62455 11.985
Spine1  4.42982 -0.401183 0.102286
HEad  -2.56609 -7.17291 -10.4001
LeftShoulder1  -0.433022 4.59643 -33.4813
LeftArm  2.08831 11.4669 -42.1302
LeftForeArm  27.1265 -14.7118 -7.06045
LeftHand  -0.0327594 8.04668 0.673155
RightShoulder  -1.09501 -6.38646 31.4341
RightArm  14.3224 -4.66116 41.6667
RightForeArm  17.2249 9.79182 6.62172
RightHand  0.102621 1.67425 1.64897
LeftUpLeg  6.83471 3.24099 3.41881
LeftLeg  50.73 -5.45144 -6.66525
LeftFoot  12.3933 2.18787 -10.889
LeftToes  -1.63346e-009 7.54925e-011 9.86887e-012
649
root  6.15455 37.2993 -12.4555 77.582 -84.586 -81.1172
RightUpLeg  -21.9519 1.29493 7.17479
RightLeg  31.6611 -1.43911 -1.21714
RightFoot  -5.54485 0.153294 -3.75932
RightToes  -1.33073e-015 0 -3.6325e-017
Spine  6.1615 -1.56415 14.2487
Spine1  4.93246 0.0557703 -0.0118558
HEad  -2.84071 -7.11886 -7.72988
LeftShoulder1  -0.475191 4.68859 -33.9537
LeftArm  4.57435 10.9409 -42.0878
LeftForeArm  29.6589 -15.4724 -6.94374
LeftHand  -0.117618 8.74353 -2.36176
RightShoulder  -1.04607 -6.2823 31.0877
RightArm  15.2007 -3.98431 42.0376
RightForeArm  14.5937 11.0173 6.62782
RightHand  0.00625275 3.78967 -0.221103
LeftUpLeg  -0.0356768 1.30031 4.47545
LeftLeg  59.1148 -3.73013 -6.20273
LeftFoot  18.2996 2.34206 -9.16803
LeftToes  -1.63346e-009 7.54925e-011 9.86887e-012
650
root  4.64208 37.6551 -12.5084 75.0654 -84.9925 -79.088
RightUpLeg  -18.1813 0.764446 6.86001
RightLeg  30.7324 -1.21649 -1.04178
RightFoot  -7.88881 0.057782 -3.69302
RightToes  -1.33073e-015 0 -3.6325e-017
Spine  6.72426 -0.882678 14.3086
Spine1  4.86017 0.917417 -0.248223
HEad  -2.16961 -7.70848 -5.5965
LeftShoulder1  -0.483536 4.70678 -34.0344
LeftArm  7.58477 11.8552 -42.2787
LeftForeArm  28.7191 -17.7076 -5.90779
LeftHand  -0.129205 8.33846 -3.07932
RightShoulder  -0.997869 -6.17034 30.8532
RightArm  17.5526 -3.06836 42.2728
RightForeArm  13.2302 12.5341 6.6976
RightHand  0.0216674 4.00428 0.00702554
LeftUpLeg  -5.29961 0.89565 4.31118
LeftLeg  63.5267 -2.82999 -5.57309
LeftFoot  12.028 1.23921 -6.34902
LeftToes  -1.63346e-009 7.54925e-011 9.86887e-012
